<svg width="154" height="40" viewBox="0 0 154 40" fill="none" xmlns="http://www.w3.org/2000/svg">
<path d="M66.4049 8.37675V22.0538C66.4049 25.2785 65.5376 27.8527 63.8029 29.7764C62.0794 31.6889 59.7776 32.6452 56.8977 32.6452C54.0399 32.6452 51.7493 31.6889 50.0258 29.7764C48.3022 27.8638 47.4405 25.2896 47.4405 22.0538V8.37675H54.9295V22.8711C54.9295 23.6717 55.1018 24.2889 55.4466 24.7225C55.7913 25.1451 56.275 25.3563 56.8977 25.3563C57.5315 25.3563 58.0207 25.1451 58.3654 24.7225C58.7101 24.2889 58.8825 23.6717 58.8825 22.8711V8.37675H66.4049Z" fill="#212121"/>
<path d="M78.4474 32.2616V22.3207C78.4474 21.9204 78.3251 21.5924 78.0804 21.3366C77.8469 21.0809 77.5467 20.953 77.1798 20.953C76.8128 20.953 76.507 21.0809 76.2624 21.3366C76.0289 21.5924 75.9121 21.9204 75.9121 22.3207V32.2616H69.0569V23.655C69.0569 22.3096 69.1737 21.2032 69.4072 20.3358C69.6407 19.4574 70.0243 18.6512 70.558 17.9173C71.3142 16.861 72.276 16.0326 73.4436 15.4321C74.6223 14.8317 75.8676 14.5314 77.1798 14.5314C78.503 14.5314 79.7428 14.8317 80.8993 15.4321C82.0668 16.0215 83.0342 16.8499 83.8015 17.9173C84.3352 18.6401 84.7188 19.4463 84.9523 20.3358C85.197 21.2254 85.3193 22.3318 85.3193 23.655V32.2616H78.4474Z" fill="#212121"/>
<path d="M87.2541 9.57766C87.2541 8.45459 87.6488 7.50386 88.4383 6.72549C89.2278 5.936 90.1897 5.54126 91.3238 5.54126C92.4469 5.54126 93.3976 5.936 94.176 6.72549C94.9544 7.50386 95.3436 8.45459 95.3436 9.57766C95.3436 10.7119 94.9544 11.6681 94.176 12.4465C93.3976 13.2249 92.4469 13.6141 91.3238 13.6141C90.1897 13.6141 89.2278 13.2249 88.4383 12.4465C87.6488 11.657 87.2541 10.7007 87.2541 9.57766ZM87.8712 32.2616V14.8817H94.7431V32.2616H87.8712Z" fill="#212121"/>
<path d="M107.586 24.4056C107.586 23.3937 107.431 22.6654 107.119 22.2206C106.819 21.7647 106.335 21.5368 105.668 21.5368C105.157 21.5368 104.717 21.7369 104.35 22.1372C103.983 22.5264 103.8 22.999 103.8 23.555C103.8 24.1221 103.978 24.5946 104.334 24.9727C104.69 25.3508 105.134 25.5398 105.668 25.5398C105.89 25.5287 106.091 25.4953 106.269 25.4397C106.446 25.373 106.613 25.2841 106.769 25.1729V32.4284C106.669 32.4395 106.552 32.4451 106.419 32.4451C106.296 32.4562 106.118 32.4617 105.885 32.4617C103.172 32.4617 100.992 31.65 99.3466 30.0266C97.712 28.392 96.8948 26.2348 96.8948 23.555C96.8948 22.3652 97.1171 21.2254 97.5619 20.1357C98.0067 19.0349 98.6405 18.0675 99.4634 17.2335C100.308 16.3773 101.265 15.7268 102.332 15.282C103.4 14.8261 104.512 14.5982 105.668 14.5982C107.647 14.5982 109.376 15.1486 110.855 16.2494C112.345 17.3391 113.374 18.818 113.941 20.6861C114.119 21.2755 114.247 21.9204 114.325 22.6209C114.414 23.3215 114.458 24.3945 114.458 25.84V39.5338H107.586V24.4056Z" fill="#212121"/>
<path d="M123.715 14.8817V24.8226C123.715 25.2229 123.832 25.5509 124.065 25.8067C124.31 26.0513 124.616 26.1736 124.983 26.1736C125.35 26.1736 125.65 26.0513 125.883 25.8067C126.128 25.5509 126.25 25.2229 126.25 24.8226V14.8817H133.122V23.4882C133.122 24.8226 133 25.929 132.755 26.8074C132.522 27.6748 132.138 28.4809 131.604 29.2259C130.848 30.2712 129.887 31.0885 128.719 31.6778C127.551 32.2672 126.306 32.5618 124.983 32.5618C123.66 32.5618 122.409 32.2672 121.23 31.6778C120.062 31.0774 119.095 30.2489 118.328 29.1926C117.794 28.4587 117.41 27.6525 117.177 26.7741C116.943 25.8956 116.827 24.8004 116.827 23.4882V14.8817H123.715Z" fill="#212121"/>
<path d="M152.921 28.3753C151.509 29.7986 150.085 30.855 148.651 31.5444C147.227 32.2227 145.737 32.5618 144.181 32.5618C143.313 32.5618 142.479 32.4617 141.679 32.2616C140.889 32.0614 140.161 31.7668 139.494 31.3776C138.126 30.5659 137.048 29.4706 136.258 28.0918C135.48 26.7018 135.09 25.1895 135.09 23.555C135.09 22.3429 135.313 21.1921 135.758 20.1023C136.202 19.0015 136.847 18.023 137.692 17.1668C138.515 16.2994 139.472 15.6434 140.561 15.1986C141.651 14.7538 142.835 14.5314 144.114 14.5314C146.149 14.5314 147.939 15.1097 149.485 16.2661C151.042 17.4225 152.22 19.0627 153.021 21.1865L144.414 25.8734L142.546 22.3874L145.715 20.6194C145.482 20.3636 145.22 20.1746 144.931 20.0523C144.642 19.93 144.325 19.8688 143.981 19.8688C143.269 19.8688 142.674 20.1913 142.196 20.8362C141.718 21.47 141.479 22.2707 141.479 23.2381C141.479 24.2833 141.779 25.1284 142.379 25.7733C142.991 26.4071 143.786 26.724 144.765 26.724C145.521 26.724 146.255 26.5406 146.966 26.1736C147.678 25.7956 148.334 25.2507 148.934 24.539L152.921 28.3753Z" fill="#212121"/>
<path d="M106.741 9.96314H107.282V6.14868C107.282 5.1666 107.481 4.28415 108.435 3.81446C108.748 3.65789 109.104 3.58673 109.445 3.58673C109.787 3.58673 110.143 3.65789 110.456 3.81446C111.41 4.28415 111.609 5.1666 111.609 6.14868V9.96314H112.15V6.09175C112.15 5.05273 111.95 3.98526 110.698 3.359C110.314 3.15974 109.872 3.07434 109.445 3.07434C109.018 3.07434 108.577 3.15974 108.193 3.359C106.94 3.98526 106.741 5.05273 106.741 6.09175V9.96314Z" fill="#212121"/>
<path d="M119.935 4.72537C119.295 3.70059 118.241 3.07434 116.989 3.07434C114.996 3.07434 113.488 4.55458 113.488 6.60414C113.488 8.68216 115.082 10.1055 117.032 10.1055C119.095 10.1055 120.391 8.49713 120.49 6.73223H119.921C119.85 8.28364 118.668 9.59308 116.96 9.59308C115.224 9.59308 114.028 8.22671 114.028 6.6326C114.028 5.3374 114.697 4.39801 115.566 3.92832C115.993 3.70059 116.476 3.58673 116.96 3.58673C117.615 3.58673 118.54 3.81446 119.181 4.61151L114.84 7.58622L115.139 7.99898L119.935 4.72537Z" fill="#212121"/>
<path d="M122.363 1.36637H121.822V7.71432C121.822 8.71063 121.979 9.96314 123.786 9.96314H124.754V9.45075H123.786C123.331 9.45075 122.889 9.40805 122.591 8.93836C122.349 8.55407 122.363 8.08437 122.363 7.68585V3.72906H124.754V3.21667H122.363V1.36637Z" fill="#212121"/>
<path d="M130.019 3.21667H129.478V7.31579C129.478 7.97051 129.45 8.96682 128.51 9.42228C128.268 9.53615 127.998 9.59308 127.727 9.59308C126.888 9.59308 126.446 9.12339 126.261 8.81026C126.019 8.3975 125.977 7.89935 125.977 7.47235V3.21667H125.436V7.47235C125.436 8.3975 125.607 9.35112 126.674 9.87774C127.002 10.0343 127.357 10.1055 127.727 10.1055C128.055 10.1055 128.396 10.0628 128.695 9.93467C129.023 9.79234 129.507 9.46498 129.763 8.78179C129.99 9.46498 130.46 9.77811 130.802 9.93467C131.314 10.1624 132.197 10.1909 132.823 9.87774C133.89 9.35112 134.061 8.3975 134.061 7.47235V3.21667H133.52V7.47235C133.52 7.97051 133.506 8.98106 132.538 9.43651C131.798 9.77811 130.759 9.57885 130.304 8.79603C130.175 8.58253 130.019 8.15554 130.019 7.31579V3.21667Z" fill="#212121"/>
<path d="M138.909 3.07434C137.001 3.07434 135.45 4.63998 135.45 6.5899C135.45 8.53983 137.001 10.1055 138.909 10.1055C140.816 10.1055 142.367 8.53983 142.367 6.5899C142.367 4.63998 140.816 3.07434 138.909 3.07434ZM138.909 3.58673C140.545 3.58673 141.826 4.89617 141.826 6.5899C141.826 8.28364 140.545 9.59308 138.909 9.59308C137.272 9.59308 135.991 8.28364 135.991 6.5899C135.991 4.89617 137.272 3.58673 138.909 3.58673Z" fill="#212121"/>
<path d="M144.075 9.96314H144.616V6.43334C144.616 5.65052 144.701 4.51188 145.669 3.98526C145.954 3.82869 146.338 3.72906 146.694 3.72906H147.263V3.21667H146.637C146.281 3.21667 145.797 3.34477 145.456 3.5298C144.957 3.81446 144.73 4.21298 144.616 4.51188V3.21667H144.075V9.96314Z" fill="#212121"/>
<path d="M148.036 0V9.96314H148.577V6.5472H150.484C151.125 6.5472 151.609 6.7607 151.851 7.07383C152.178 7.48659 152.192 8.15554 152.192 8.58253V9.96314H152.733V8.66793C152.733 8.09861 152.748 7.35849 152.264 6.7607C152.022 6.47604 151.538 6.09175 150.798 6.09175C151.21 5.83555 151.395 5.57936 151.822 4.93887L152.961 3.21667H152.306L151.509 4.39801C150.94 5.23776 150.499 6.03481 149.687 6.03481H148.577V0H148.036Z" fill="#212121"/>
<ellipse cx="19.7669" cy="20" rx="19.7669" ry="20" fill="#212121"/>
<mask id="mask0" mask-type="alpha" maskUnits="userSpaceOnUse" x="0" y="0" width="40" height="40">
<ellipse cx="19.7669" cy="20" rx="19.7669" ry="20" fill="#000219"/>
</mask>
<g mask="url(#mask0)">
<path d="M15.5043 40.5714V35.5187C12 34.5323 9.19513 32.6269 7.0896 29.8023C4.9988 26.9777 3.9534 23.7048 3.9534 19.9835C3.9534 15.0667 5.77917 11.039 9.43071 7.90061C12.4638 5.3002 15.9166 4 19.789 4C24.7804 4 28.8074 5.83074 31.87 9.49223C34.3436 12.4513 35.5804 15.8662 35.5804 19.7369C35.5804 23.5329 34.4835 26.9329 32.2896 29.9368C30.3166 32.6567 27.5632 34.5174 24.0295 35.5187L24.0295 40.5714H15.5043ZM15.8135 22.4494H23.7424V25.8793C25.5093 24.3399 26.3927 22.3896 26.3927 20.0284C26.3927 18.1304 25.7375 16.4864 24.427 15.0965C23.1166 13.7067 21.5706 13.0117 19.789 13.0117C17.9927 13.0117 16.4393 13.7067 15.1289 15.0965C13.8184 16.4864 13.1632 18.1304 13.1632 20.0284C13.1632 22.4494 14.0467 24.3997 15.8135 25.8793V22.4494Z" fill="#A2DD18"/>
</g>
</svg>
